<svg xmlns="http://www.w3.org/2000/svg" width="42" height="43" viewBox="0 0 42 43"><defs><style>.a,.c{fill:#fff;}.b,.d,.g{fill:none;}.b{stroke-linecap:round;stroke-linejoin:round;}.c{stroke:#0154a0;stroke-width:0.8px;}.e,.f{stroke:none;}.f{fill:#0154a0;}</style></defs><g transform="translate(-790 -2215)"><ellipse class="a" cx="21" cy="21.5" rx="21" ry="21.5" transform="translate(790 2215)"/><g class="b" transform="translate(799 2224)"><path class="e" d="M24,28H0V5A5.006,5.006,0,0,1,5,0H19a5.006,5.006,0,0,1,5,5V28Z"/><path class="f" d="M 22.99939918518066 26.99990081787109 L 22.99939918518066 5.000400543212891 C 22.99939918518066 2.794570446014404 21.20522880554199 1.000000357627869 18.99989891052246 1.000000357627869 L 5.000399589538574 1.000000357627869 C 2.794569492340088 1.000000357627869 0.9999995827674866 2.794570446014404 0.9999995827674866 5.000400543212891 L 0.9999995827674866 26.99990081787109 L 22.99939918518066 26.99990081787109 M 23.99939918518066 27.99990081787109 L 23.99839973449707 27.99990081787109 L -4.07409658009783e-07 27.99990081787109 L -4.07409658009783e-07 5.000400543212891 C -4.07409658009783e-07 2.243170499801636 2.243169546127319 4.089355343239731e-07 5.000399589538574 4.089355343239731e-07 L 18.99989891052246 4.089355343239731e-07 C 21.75662994384766 4.089355343239731e-07 23.99939918518066 2.243170499801636 23.99939918518066 5.000400543212891 L 23.99939918518066 27.99889945983887 L 23.99939918518066 27.99990081787109 Z"/></g><g class="c" transform="translate(809 2227)"><circle class="e" cx="2" cy="2" r="2"/><circle class="g" cx="2" cy="2" r="1.6"/></g><g class="d" transform="translate(802 2232)"><path class="e" d="M18,19H0V0H18V19Z"/><path class="f" d="M 17 17.99949073791504 L 17 1 L 1 1 L 1 17.99949073791504 L 17 17.99949073791504 M 18 19 L 18 18.99949073791504 L 0 18.99949073791504 L 0 0 L 18 0 L 18 18.99949073791504 L 18 19 Z"/></g><g transform="translate(796.892 2245.363)"><rect class="a" width="27" height="4" transform="translate(0.108 2.637)"/><rect class="a" width="19" height="5" transform="translate(5.108 -0.363)"/></g></g></svg>